<svg width="88" height="88" viewBox="0 0 88 88" fill="none" xmlns="http://www.w3.org/2000/svg">
  <defs>
    <clipPath id="clip">
      <circle cx="44" cy="44" r="44"/>
    </clipPath>
    <linearGradient id="bg" x1="18" y1="10" x2="72" y2="84" gradientUnits="userSpaceOnUse">
      <stop stop-color="#D8D8D8"/>
      <stop offset="1" stop-color="#BDBDBD"/>
    </linearGradient>
  </defs>
  <g clip-path="url(#clip)">
    <rect width="88" height="88" fill="url(#bg)"/>
    <circle cx="44" cy="34" r="14" fill="#6E6E6E"/>
    <path d="M24 91C25.8 69.4 33.5 58 44 58C54.5 58 62.2 69.4 64 91H24Z" fill="#5F5F5F"/>
    <path d="M28 43C28 23.5 36 13 45 13C55 13 63 24.5 64 43C60 33.2 55 27 45 27C35 27 31 33.2 28 43Z" fill="#3F3F3F"/>
    <path d="M31 55C36 61 52 62 58 55" stroke="#A8A8A8" stroke-width="2" stroke-linecap="round"/>
    <path d="M34 29C40 23 51 23 57 31" stroke="#202020" stroke-width="2" stroke-linecap="round"/>
    <path d="M35 37C39 39 42 39 46 36" stroke="#E7E7E7" stroke-width="1.5" stroke-linecap="round" opacity="0.75"/>
    <path d="M48 36C52 39 55 39 59 37" stroke="#E7E7E7" stroke-width="1.5" stroke-linecap="round" opacity="0.75"/>
    <path d="M43 40L41 48L46 48" stroke="#D2D2D2" stroke-width="1.5" stroke-linecap="round" stroke-linejoin="round" opacity="0.8"/>
  </g>
</svg>
